<svg width="35" height="39" viewBox="0 0 35 39" fill="none" xmlns="http://www.w3.org/2000/svg">
<path d="M34.5735 35.0831L21.4524 3.36037C20.7123 1.72023 19.6123 0.920166 18.1621 0.920166H17.002C15.5519 0.920166 14.4518 1.72023 13.7118 3.36037L8.00127 17.1815H3.6809C2.39079 17.1915 1.3407 18.2316 1.3307 19.5317V19.5617C1.3407 20.8519 2.39079 21.9019 3.6809 21.9119H6.0011L0.550639 35.0831C0.450631 35.3731 0.390625 35.6731 0.390625 35.9831C0.390625 36.7232 0.620644 37.3032 1.03068 37.7533C1.44071 38.2033 2.03076 38.4233 2.77083 38.4233C3.26087 38.4133 3.73091 38.2633 4.12094 37.9733C4.54098 37.6833 4.831 37.2632 5.06102 36.7832L11.0615 21.9019H15.2219C16.512 21.8919 17.5621 20.8519 17.5721 19.5517V19.4917C17.5621 18.2016 16.512 17.1515 15.2219 17.1415H13.0017L17.5821 5.73057L30.0631 36.7732C30.2932 37.2532 30.5832 37.6733 31.0032 37.9633C31.3932 38.2533 31.8733 38.4033 32.3533 38.4133C33.0934 38.4133 33.6734 38.1933 34.0935 37.7433C34.5135 37.2932 34.7335 36.7132 34.7335 35.9731C34.7435 35.6731 34.6935 35.3631 34.5735 35.0831Z" fill="white"/>
</svg>
