<svg width="46" height="35" viewBox="0 0 46 35" fill="none" xmlns="http://www.w3.org/2000/svg">
<path d="M22.793 34.8033C10.2037 34.8033 0 31.1658 0 26.2923C0 23.7492 2.77925 21.4581 7.22764 19.8441C10.6997 22.0722 16.5259 23.2139 23.1316 23.2139C29.5798 23.2139 35.28 21.8203 38.7836 19.6866C42.98 21.2849 45.5861 23.513 45.5861 25.9695C45.5861 30.8509 35.3824 34.8033 22.793 34.8033Z" fill="white"/>
<path d="M22.9263 22.1195C13.3839 22.1195 5.64453 19.1277 5.64453 15.4351C5.64453 13.3881 8.03012 11.5536 11.7699 10.3333C14.4389 11.7268 18.4386 12.6165 22.9263 12.6165C27.4141 12.6165 31.4137 11.7268 34.0827 10.3333C37.8304 11.5615 40.2081 13.3881 40.2081 15.4351C40.2159 19.1277 32.4765 22.1195 22.9263 22.1195Z" fill="white"/>
<path d="M22.8609 11.5063C15.4837 11.5063 9.5 9.03411 9.5 5.99504C9.5 2.95596 15.4837 0.483765 22.8609 0.483765C30.2381 0.483765 36.2218 2.95596 36.2218 5.99504C36.2218 9.03411 30.2381 11.5063 22.8609 11.5063Z" fill="white"/>
</svg>
