<svg width="49" height="45" viewBox="0 0 49 45" fill="none" xmlns="http://www.w3.org/2000/svg">
<path d="M33.8123 34.2161H14.3573C14.1773 34.2161 14.0005 34.2647 13.8458 34.3568L3.91638 40.2675C3.04331 40.7872 3.41183 42.1268 4.42789 42.1268H43.9785C45 42.1268 45.3642 40.7757 44.4811 40.2623L34.315 34.3516C34.1623 34.2628 33.9889 34.2161 33.8123 34.2161Z" fill="white"/>
<path d="M25.1689 16.0336L35.0098 32.8162C35.1009 32.9715 35.2322 33.0993 35.39 33.1862L45.5113 38.7619C46.4013 39.2521 47.3704 38.2566 46.8565 37.3801L26.8506 3.26252C26.3339 2.38135 24.9841 2.75057 24.9879 3.77205L25.0315 15.5315C25.0322 15.7081 25.0796 15.8813 25.1689 16.0336Z" fill="white"/>
<path d="M23.3914 15.9971L13.686 32.8074C13.5959 32.9636 13.4651 33.0925 13.3076 33.1804L3.23479 38.8057C2.34813 39.3008 1.37341 38.3121 1.88119 37.4326L21.6127 3.25664C22.1232 2.37244 23.4746 2.73167 23.4787 3.75266L23.5254 15.4931C23.5261 15.67 23.4799 15.8439 23.3914 15.9971Z" fill="white"/>
</svg>
