<svg width="39" height="50" viewBox="0 0 39 50" fill="none" xmlns="http://www.w3.org/2000/svg">
<path fill-rule="evenodd" clip-rule="evenodd" d="M2.31914 38.7179C1.10101 37.9724 0.355469 36.6483 0.355469 35.2224V27.2618C0.355469 26.3166 1.12546 25.5507 2.07063 25.5548C2.3721 25.5548 2.66951 25.6363 2.93024 25.787L20.8925 36.2613C21.9436 36.8724 22.5914 37.9968 22.5914 39.2149V47.4607C22.5955 48.5933 21.6788 49.514 20.5463 49.514C20.1674 49.514 19.7926 49.4081 19.4707 49.2126L2.31914 38.7179ZM29.0935 23.6074C30.1446 24.2185 30.7883 25.347 30.7924 26.5611V43.2971C30.7924 43.7901 30.5276 44.2463 30.0957 44.4867L26.1643 46.6989C26.1154 46.7274 26.0625 46.7478 26.0054 46.7641V37.4713C26.0054 36.2694 25.374 35.1532 24.3392 34.5339L8.5646 25.0985V14.6079C8.5646 13.6628 9.33458 12.8968 10.2798 12.9009C10.5812 12.9009 10.8786 12.9824 11.1394 13.1331L29.0935 23.6074ZM36.9564 11.2469C38.0115 11.858 38.6593 12.9865 38.6593 14.2046V38.6487C38.6552 39.1498 38.3782 39.6101 37.9382 39.8505L34.2105 41.863V24.8459C34.2105 23.6441 33.579 22.5319 32.5524 21.9126L16.4274 12.2409V2.2922C16.4274 1.99073 16.5089 1.69332 16.6556 1.43259C17.1322 0.617785 18.1793 0.340752 18.9941 0.813337L36.9564 11.2469Z" fill="white"/>
</svg>
