<svg width="46" height="47" viewBox="0 0 46 47" fill="none" xmlns="http://www.w3.org/2000/svg">
<path d="M29.8585 0.943848C21.8827 0.943848 15.1085 7.07715 14.2573 14.9725C6.3578 15.8258 0.226562 22.6 0.226562 30.5737C0.228746 34.7393 1.88436 38.7338 4.82972 41.6795C7.77507 44.6252 11.7693 46.2814 15.9349 46.2841C23.9107 46.2841 30.7117 40.1508 31.5361 32.2554C39.4335 31.4022 45.5668 24.628 45.5668 16.6543C45.5647 12.4886 43.909 8.4942 40.9637 5.54846C38.0183 2.60272 34.0241 0.946578 29.8585 0.943848ZM41.886 18.4122C41.4938 20.9885 40.2884 23.372 38.4457 25.2147C36.603 27.0574 34.2195 28.2628 31.6432 28.655V18.4122H41.886ZM3.90737 28.8158C4.29431 26.2346 5.49743 23.8451 7.34056 21.9972C9.18369 20.1492 11.57 18.9399 14.1501 18.5462V28.789H3.90737V28.8158ZM27.9645 32.3605C27.539 35.2462 26.0895 37.8824 23.8808 39.7876C21.6721 41.6928 18.8517 42.7398 15.9349 42.7373C13.0186 42.7398 10.1987 41.693 7.99045 39.7882C5.78217 37.8834 4.33289 35.2477 3.90737 32.3626H27.9645V32.3605ZM28.0985 18.4122V28.789H17.6949V18.4122H28.0985ZM41.886 14.8674H17.8289C18.2544 11.9818 19.7039 9.34556 21.9126 7.44037C24.1213 5.53517 26.9416 4.48819 29.8585 4.49069C32.7748 4.48818 35.5947 5.53495 37.8029 7.43976C40.0112 9.34457 41.4605 11.9803 41.886 14.8654V14.8674Z" fill="white"/>
</svg>
