<svg width="32" height="45" viewBox="0 0 32 45" fill="none" xmlns="http://www.w3.org/2000/svg">
<path d="M14.0742 22.3158L30.6434 31.8066C30.7765 31.8867 30.9286 31.9298 31.084 31.9316C31.2393 31.9334 31.3923 31.8938 31.5273 31.8168C31.6623 31.7399 31.7743 31.6284 31.852 31.4938C31.9296 31.3593 31.9699 31.2064 31.9689 31.0511V13.5673C31.9709 13.4117 31.931 13.2584 31.8534 13.1235C31.7758 12.9886 31.6634 12.877 31.5279 12.8004C31.3924 12.7239 31.2388 12.6851 31.0832 12.6883C30.9276 12.6914 30.7757 12.7364 30.6434 12.8184L14.0742 22.3158Z" fill="white"/>
<path d="M30.2947 8.61637L18.968 0.285394C18.8508 0.195357 18.7131 0.135554 18.5673 0.111255C18.4215 0.0869558 18.2719 0.0989073 18.1317 0.146056C17.9916 0.193204 17.8652 0.274102 17.7637 0.381619C17.6622 0.489135 17.5887 0.619968 17.5497 0.762586L13.4141 19.3201L30.1953 10.0413C30.323 9.97564 30.4316 9.87814 30.5106 9.75824C30.5896 9.63834 30.6364 9.50009 30.6464 9.35685C30.6564 9.2136 30.6293 9.0702 30.5677 8.94049C30.5061 8.81079 30.4121 8.69915 30.2947 8.61637Z" fill="white"/>
<path d="M18.9548 44.3395L30.2947 36.0085C30.4136 35.9249 30.5091 35.8122 30.5719 35.6811C30.6347 35.5501 30.6628 35.4051 30.6535 35.26C30.6442 35.115 30.5978 34.9748 30.5187 34.8528C30.4396 34.7309 30.3306 34.6313 30.2019 34.5636L13.4141 25.2849L17.5497 43.8424C17.584 43.9866 17.6536 44.12 17.7522 44.2306C17.8509 44.3412 17.9754 44.4257 18.1147 44.4763C18.254 44.5269 18.4037 44.542 18.5503 44.5205C18.697 44.4989 18.836 44.4413 18.9548 44.3527" fill="white"/>
<path d="M9.76793 21.9711L14.0759 1.82301C14.1088 1.65604 14.0911 1.48306 14.0252 1.3262C13.9592 1.16934 13.8479 1.03574 13.7055 0.942499C13.5632 0.849257 13.3962 0.800617 13.2261 0.802805C13.0559 0.804993 12.8903 0.85791 12.7504 0.954782L1.71531 9.41831C1.43588 9.63269 1.20975 9.90871 1.05455 10.2249C0.899349 10.541 0.819276 10.8887 0.820577 11.2409V32.7146C0.815154 33.0712 0.893244 33.4242 1.0486 33.7453C1.20396 34.0663 1.43228 34.3466 1.71531 34.5637L12.6974 43.0007C12.8373 43.0976 13.0029 43.1505 13.1731 43.1527C13.3432 43.1549 13.5102 43.1062 13.6525 43.013C13.7949 42.9198 13.9062 42.7862 13.9721 42.6293C14.0381 42.4724 14.0558 42.2994 14.0229 42.1325L9.76793 21.9711Z" fill="white"/>
</svg>
