<svg width="52" height="44" viewBox="0 0 52 44" fill="none" xmlns="http://www.w3.org/2000/svg">
<path d="M39.3116 13.4288C38.373 12.8828 37.1527 12.8828 36.1201 13.4288L28.7987 17.6154L23.8238 20.3457L16.5023 24.5322C15.5637 25.0782 14.3434 25.0782 13.3109 24.5322L7.4912 21.2558C6.5526 20.7097 5.89553 19.7086 5.89553 18.6165V12.1547C5.89553 11.0626 6.45867 10.0615 7.4912 9.51538L13.217 6.33006C14.1557 5.78398 15.3759 5.78398 16.4084 6.33006L22.1342 9.51538C23.0729 10.0615 23.73 11.0626 23.73 12.1547V16.3412L28.7048 13.5199V9.33341C28.7048 8.24124 28.1416 7.2401 27.1091 6.69409L16.5023 0.687395C15.5637 0.141311 14.3434 0.141311 13.3109 0.687395L2.51633 6.69409C1.48388 7.2401 0.920654 8.24124 0.920654 9.33341V21.4378C0.920654 22.5299 1.48388 23.5311 2.51633 24.0771L13.3109 30.0838C14.2495 30.6299 15.4698 30.6299 16.5023 30.0838L23.8238 25.9883L28.7987 23.167L36.1201 19.0715C37.0588 18.5255 38.279 18.5255 39.3116 19.0715L45.0374 22.2569C45.976 22.803 46.6331 23.8041 46.6331 24.8962V31.358C46.6331 32.4501 46.0699 33.4512 45.0374 33.9973L39.3116 37.2737C38.373 37.8197 37.1527 37.8197 36.1201 37.2737L30.3943 34.0883C29.4557 33.5422 28.7987 32.5411 28.7987 31.449V27.2625L23.8238 30.0838V34.2703C23.8238 35.3625 24.387 36.3636 25.4195 36.9096L36.2141 42.9163C37.1527 43.4624 38.373 43.4624 39.4054 42.9163L50.2 36.9096C51.1386 36.3636 51.7957 35.3625 51.7957 34.2703V22.1659C51.7957 21.0738 51.2324 20.0727 50.2 19.5266L39.3116 13.4288Z" fill="white"/>
</svg>
