<svg width="48" height="46" viewBox="0 0 48 46" fill="none" xmlns="http://www.w3.org/2000/svg">
<g clip-path="url(#clip0)">
<path d="M10.7312 40.0748C12.1251 41.6902 13.8204 43.0079 15.7187 43.9516C17.6171 44.8952 19.6808 45.446 21.79 45.572C24.31 45.4359 26.6875 44.3407 28.4505 42.5038C31.9278 39.474 35.5786 36.6566 39.3836 34.0663L41.52 33.1714C42.3996 32.7879 43.9077 31.893 45.29 30.2311C46.798 28.1856 47.0494 26.0123 47.0494 25.2453C46.8823 22.8261 46.1031 20.492 44.7873 18.4697C41.354 24.6932 36.4335 29.9355 30.4808 33.7119C24.5282 37.4882 17.7356 39.6767 10.7312 40.0748Z" fill="white" fill-opacity="0.5"/>
<path d="M15.5034 3.768C16.4415 2.75997 17.5716 1.95676 18.8246 1.4073C20.0777 0.857835 21.4277 0.573626 22.7922 0.571981C23.6567 0.513094 24.5241 0.6297 25.344 0.915016C26.1638 1.20033 26.9197 1.64866 27.5676 2.23391C31.1723 4.83179 35.466 6.25804 39.8831 6.32482C41.0141 6.45266 43.2761 6.83618 44.7842 8.7538C45.9152 10.2879 46.0409 11.9498 46.0409 12.7169C45.9396 14.6923 45.5149 16.6366 44.7842 18.4697C44.7842 18.4697 41.4627 12.187 34.1111 8.7538C26.7595 5.3206 15.5034 3.768 15.5034 3.768Z" fill="white" fill-opacity="0.6"/>
<path d="M10.7287 40.0747C9.59768 39.9468 8.08966 39.5633 6.3303 38.7962C4.57094 38.0292 2.43458 37.1343 1.05222 34.7053C0.172543 33.1713 0.046875 31.6372 0.046875 30.6144C0.077556 27.9021 0.722608 25.2336 1.9319 22.8161C3.13504 19.8282 3.93812 16.6893 4.3196 13.4838L4.94794 10.9269C5.32495 9.64853 5.57629 8.37012 6.45597 7.09171L7.83832 5.55762C10.1215 4.09732 12.8235 3.46648 15.5041 3.76785C11.9147 8.9913 9.60793 15.0137 8.77708 21.3306C7.94622 27.6475 8.61545 34.075 10.7287 40.0747Z" fill="white" fill-opacity="0.3"/>
<path d="M15.5026 3.76758C15.377 3.76758 17.4867 3.86062 23.6068 5.32976C29.727 6.7989 30.0802 7.21928 30.0802 7.21928C28.6978 7.09144 19.901 6.70792 13.2406 13.4835C4.82082 22.1767 7.79533 34.0131 7.921 34.6523C5.9698 32.155 4.77637 29.0694 4.94648 25.8841C5.11192 21.6564 6.1351 17.5092 7.95173 13.7032C9.76836 9.8971 12.3392 6.51438 15.5026 3.76758Z" fill="white" fill-opacity="0.8"/>
<path d="M32.3428 35.3447C34.7203 30.9482 35.7736 25.9372 35.3713 20.936C34.9691 15.9349 33.1292 11.1646 30.0808 7.21973C33.7209 7.83884 37.0691 9.63151 39.6316 12.3334C41.1396 13.6118 43.0247 15.5294 44.784 18.4697C42.2992 25.1841 37.9833 31.0381 32.3428 35.3447Z" fill="white" fill-opacity="0.8"/>
<path d="M36.3661 12.8447C34.3554 9.39295 31.4651 7.85886 30.2084 7.21965C29.203 6.96397 19.7779 5.42988 12.6148 12.4611C6.83404 18.0861 6.45703 25.3731 6.45703 26.7793C6.48364 31.5972 8.07406 36.2712 10.9811 40.0748C14.7168 40.8065 18.5555 40.8065 22.2913 40.0748C24.1763 39.6912 28.5747 38.9242 32.3447 35.6003C32.8474 35.089 38.3768 29.8475 38.7538 21.5378C38.7538 20.1316 38.7538 16.552 36.3661 12.8447ZM31.8421 31.3816C30.6751 32.673 29.257 33.7035 27.6777 34.4077C26.0985 35.112 24.3926 35.4746 22.6683 35.4725C21.9143 35.4725 16.8875 35.3447 13.3688 31.1259C12.8661 30.4867 10.3528 27.4185 10.4784 22.8162C10.7298 16.6799 15.5052 13.1003 16.5105 12.3333C17.3902 11.6941 19.5266 10.2878 22.6683 10.16C23.4223 10.0322 26.0613 9.90431 28.7004 11.4384C34.4811 14.6344 34.7324 22.3049 34.7324 22.8162C34.7324 24.2225 34.7324 28.0577 31.8421 31.3816Z" fill="white" fill-opacity="0.8"/>
</g>
<defs>
<clipPath id="clip0">
<rect width="47" height="45" fill="white" transform="translate(0.046875 0.571777)"/>
</clipPath>
</defs>
</svg>
