<svg width="48" height="47" viewBox="0 0 48 47" fill="none" xmlns="http://www.w3.org/2000/svg">
<circle cx="23.7302" cy="23.5276" r="22.4724" stroke="white" stroke-width="2"/>
<path d="M34.388 20.4587C34.8706 17.3586 32.5195 15.6769 29.2969 14.5245L30.3609 10.3577L27.8086 9.70594L26.7644 13.7954C26.0925 13.6239 25.406 13.4486 24.7245 13.2746L25.7687 9.18505L23.2357 8.53827L22.1643 12.7341L16.9872 11.4122L16.2898 14.1433C16.2898 14.1433 18.1837 14.5909 18.146 14.6173C18.4955 14.6667 18.8122 14.8498 19.0293 15.1281C19.2464 15.4064 19.3469 15.7581 19.3098 16.1091L16.3771 27.5945C16.3394 27.712 16.2784 27.8207 16.198 27.9142C16.1175 28.0078 16.019 28.0842 15.9085 28.139C15.7993 28.1958 15.6797 28.2299 15.557 28.2392C15.4342 28.2486 15.3109 28.2331 15.1943 28.1935C15.2207 28.2312 13.3381 27.7196 13.3381 27.7196L12.0758 30.6463L17.2046 31.9559L16.1159 36.2195L18.6683 36.8712L19.7409 32.6705L21.7808 33.1914L20.7131 37.3727L23.2703 38.0257L24.3466 33.8105C28.7251 34.6505 32.0033 34.3548 33.4111 30.4147C34.5451 27.2441 33.3878 25.4039 31.0961 24.1956C32.7664 23.8447 34.0305 22.7257 34.388 20.4587ZM28.4928 28.6234C27.6831 31.7944 22.3423 30.0445 20.6118 29.6026L22.0485 23.9759C23.7779 24.4226 29.3383 25.3121 28.4928 28.6234ZM29.3328 20.3933C28.5922 23.2937 24.1481 21.783 22.7076 21.4152L24.0135 16.3009C25.454 16.6687 30.1042 17.3721 29.3328 20.3933Z" fill="white"/>
</svg>
