<svg width="43" height="43" viewBox="0 0 43 43" fill="none" xmlns="http://www.w3.org/2000/svg">
<path fill-rule="evenodd" clip-rule="evenodd" d="M4.05298 42.2502H39.4316C41.2847 42.2502 42.8009 40.7339 42.8009 38.8808V3.5022C42.8009 1.64904 41.2847 0.132812 39.4316 0.132812H4.05298C2.19982 0.132812 0.683594 1.64904 0.683594 3.5022V38.8808C0.683594 40.7339 2.19982 42.2502 4.05298 42.2502ZM8.70316 37.7981C8.70316 37.909 8.79301 38.0101 8.90392 38.0101H10.2545C10.3654 38.0101 10.4552 37.909 10.4552 37.7981V32.1389C10.4552 32.0266 10.5563 31.9269 10.6672 31.9269H12.6538C12.7647 31.9269 12.8658 31.8371 12.8658 31.7262V30.6325C12.8658 30.5202 12.7647 30.4205 12.6538 30.4205H6.50463C6.39372 30.4205 6.29264 30.5216 6.29264 30.6325V31.7262C6.29264 31.8371 6.39232 31.9269 6.50463 31.9269H8.5024C8.61331 31.9269 8.70316 32.028 8.70316 32.1389V37.7981ZM19.0077 30.6325C19.0077 30.5216 19.0975 30.4205 19.2085 30.4205H20.5478C20.6587 30.4205 20.7598 30.5202 20.7598 30.6325V34.4947C20.7598 36.783 19.4654 38.1111 17.4114 38.1111C15.3688 38.1111 14.0856 36.783 14.0856 34.4947V30.6325C14.0856 30.5216 14.1754 30.4205 14.2863 30.4205H15.6257C15.7366 30.4205 15.8377 30.5202 15.8377 30.6325V34.5494C15.8377 35.6768 16.4175 36.4798 17.4227 36.4798C18.4279 36.4798 19.0077 35.6768 19.0077 34.5494V30.6325ZM26.6041 32.6977C26.6715 32.831 26.7276 32.8984 26.9059 32.8984V32.8998H28.1357C28.3028 32.8998 28.3477 32.7987 28.314 32.6429C28.0683 31.2587 26.8736 30.3321 25.1552 30.3321C23.2473 30.3321 22.0302 31.3471 22.0302 32.765C22.0302 34.183 23.1013 34.6294 24.6414 34.8302C25.9807 34.9987 26.6504 35.1208 26.6504 35.8017C26.6504 36.3703 26.0144 36.6384 25.2886 36.6384C24.4631 36.6384 23.8931 36.2257 23.7261 35.6894C23.6811 35.5673 23.5913 35.4999 23.4355 35.4999H22.2071C22.0512 35.4999 21.9726 35.556 21.9951 35.7119C22.207 37.3292 23.5688 38.0999 25.1538 38.0999C26.9831 38.0999 28.4123 37.2407 28.4123 35.6108C28.4123 34.1605 27.3636 33.6018 25.5329 33.3898C24.3283 33.2452 23.7808 33.0332 23.7808 32.5194C23.7808 32.0505 24.3719 31.8048 25.0752 31.8048C25.8558 31.8048 26.3696 32.1501 26.6041 32.6977ZM29.9286 38.0101C29.8177 38.0101 29.7278 37.909 29.7278 37.7981V30.6325C29.7278 30.5216 29.8177 30.4205 29.9286 30.4205H32.9639C35.2185 30.4205 36.9706 31.9718 36.9706 34.2378C36.9706 36.47 35.241 38.0101 32.9639 38.0101H29.9286ZM32.9639 36.5023C34.181 36.5023 35.1287 35.542 35.1287 34.2139C35.1287 32.8858 34.1796 31.9255 32.9526 31.9255H31.6919C31.581 31.9255 31.4911 32.0252 31.4911 32.1375V36.3001C31.4911 36.411 31.581 36.5009 31.6919 36.5009H32.9639V36.5023ZM1.80406 26.2453H41.6752C41.984 26.2453 42.2367 25.9926 42.2367 25.6838V3.50195C42.2367 1.95765 40.9732 0.694125 39.4289 0.694125H4.05032C2.50602 0.694125 1.2425 1.95765 1.2425 3.50195V25.6838C1.2425 25.9926 1.4952 26.2453 1.80406 26.2453Z" fill="white"/>
<path d="M23.8035 21.6911H20.1534C19.9217 21.6911 19.7322 21.5016 19.7322 21.27V5.82694C19.7322 5.59529 19.9217 5.40576 20.1534 5.40576H23.8035C24.0352 5.40576 24.2247 5.59529 24.2247 5.82694V21.27C24.2247 21.5016 24.0352 21.6911 23.8035 21.6911Z" fill="white"/>
<path d="M30.0301 9.89828H13.4639C13.2323 9.89828 13.0427 9.70875 13.0427 9.47711V5.82694C13.0427 5.59529 13.2323 5.40576 13.4639 5.40576H30.0301C30.2617 5.40576 30.4512 5.59529 30.4512 5.82694V9.47711C30.4512 9.70875 30.2617 9.89828 30.0301 9.89828Z" fill="white"/>
</svg>
