<svg width="57" height="65" viewBox="0 0 57 65" fill="none" xmlns="http://www.w3.org/2000/svg">
<path d="M22.4621 15.4184C21.7737 15.32 21.7409 15.2873 22.0687 15.2545C22.6916 15.1561 24.1342 15.2873 25.1505 15.5168C27.511 16.0741 29.642 17.5166 31.9042 20.0411L32.4943 20.7295L33.3467 20.5984C36.9858 20.0083 40.7233 20.4673 43.8378 21.9098C44.6903 22.3032 46.0344 23.09 46.1984 23.2868C46.2639 23.3523 46.3623 23.7785 46.4278 24.2047C46.6573 25.7456 46.559 26.8931 46.0672 27.7783C45.8049 28.2701 45.8049 28.4012 45.9689 28.8274C46.1 29.1552 46.4934 29.3847 46.854 29.3847C47.6409 29.3847 48.4605 28.1389 48.8539 26.4013L49.0178 25.7128L49.3129 26.0407C50.9849 27.9094 52.2963 30.4994 52.493 32.3354L52.5586 32.8271L52.2635 32.4009C51.7718 31.6469 51.3128 31.1551 50.6899 30.7289C49.5752 29.9749 48.3949 29.7454 45.2804 29.5814C42.4609 29.4175 40.8544 29.188 39.2808 28.6635C36.5924 27.7783 35.2154 26.6308 32.0353 22.4016C30.6256 20.5328 29.7404 19.5165 28.8552 18.6641C26.9209 16.7954 24.9866 15.8118 22.4621 15.4184Z" fill="white"/>
<path d="M46.8849 19.582C46.9505 18.3362 47.1144 17.5166 47.475 16.7625C47.6062 16.4675 47.7373 16.2052 47.7701 16.2052C47.8029 16.2052 47.7373 16.4347 47.6389 16.697C47.3767 17.4182 47.3439 18.4346 47.5078 19.582C47.7373 21.0574 47.8357 21.2541 49.4093 22.8605C50.1306 23.6146 50.983 24.5653 51.3108 24.9587L51.8682 25.68L51.3108 25.1555C50.6224 24.4998 49.0487 23.2539 48.6881 23.09C48.4586 22.9589 48.4258 22.9589 48.2619 23.1228C48.1307 23.2539 48.0979 23.4506 48.0979 24.4014C48.0651 25.8767 47.8684 26.7947 47.3767 27.7455C47.1144 28.2372 47.0816 28.1389 47.3111 27.5815C47.475 27.1553 47.5078 26.9586 47.5078 25.5489C47.5078 22.6966 47.18 22.0081 45.1801 20.8606C44.6883 20.5656 43.8359 20.1394 43.3441 19.9099C42.8196 19.6804 42.4262 19.4837 42.4589 19.4837C42.5245 19.4181 44.4588 19.9755 45.2129 20.3033C46.3603 20.7623 46.557 20.7951 46.6882 20.7623C46.7865 20.6639 46.8521 20.4017 46.8849 19.582Z" fill="white"/>
<path d="M23.8037 24.4671C22.4267 22.5656 21.5415 19.6149 21.7382 17.4183L21.8038 16.7299L22.1316 16.7954C22.7218 16.8938 23.7381 17.2872 24.2299 17.5823C25.5413 18.3691 26.1314 19.451 26.6887 22.1394C26.8527 22.9262 27.0822 23.8442 27.1805 24.1392C27.3444 24.631 27.9673 25.7785 28.4919 26.4997C28.8525 27.0243 28.623 27.2866 27.8034 27.221C26.5576 27.0899 24.8856 25.9424 23.8037 24.4671Z" fill="white"/>
<path d="M45.2121 38.7284C38.7207 36.1056 36.4258 33.8435 36.4258 30.0077C36.4258 29.4503 36.4586 28.9913 36.4586 28.9913C36.4914 28.9913 36.7208 29.188 37.0159 29.4175C38.3273 30.4667 39.8026 30.9256 43.9007 31.5158C46.294 31.8764 47.671 32.1387 48.9168 32.5649C52.8838 33.8763 55.3426 36.5646 55.9328 40.2037C56.0967 41.2529 55.9983 43.2527 55.7361 44.3018C55.5066 45.1215 54.8509 46.6296 54.6869 46.6624C54.6542 46.6624 54.5886 46.4984 54.5886 46.2362C54.523 44.8592 53.8345 43.5478 52.6871 42.5315C51.3101 41.3512 49.5397 40.466 45.2121 38.7284Z" fill="white"/>
<path d="M40.6241 39.8103C40.5585 39.3185 40.3946 38.6956 40.2962 38.4333L40.1323 37.9415L40.4274 38.3022C40.8536 38.7939 41.1814 39.3841 41.4765 40.2037C41.706 40.8266 41.706 41.0233 41.706 42.0396C41.706 43.0232 41.6732 43.2527 41.4765 43.81C41.1486 44.6952 40.7552 45.3181 40.0995 46.0066C38.9193 47.2196 37.3784 47.8753 35.1818 48.1704C34.7884 48.2032 33.6737 48.3015 32.6901 48.3671C30.2313 48.4982 28.592 48.7605 27.1167 49.2851C26.92 49.3506 26.7233 49.4162 26.6905 49.3834C26.6249 49.3179 27.6413 48.7277 28.4609 48.3343C29.6084 47.777 30.7886 47.4819 33.3786 47.0229C34.6572 46.8262 35.9686 46.5639 36.2965 46.4328C39.5422 45.4165 41.1486 42.892 40.6241 39.8103Z" fill="white"/>
<path d="M43.6084 45.0886C42.756 43.2198 42.5593 41.4495 43.0183 39.7774C43.0839 39.6135 43.1495 39.4496 43.215 39.4496C43.2806 39.4496 43.4773 39.5479 43.674 39.6791C44.0674 39.9414 44.887 40.4003 46.9853 41.5478C49.6409 42.9903 51.149 44.105 52.1981 45.3836C53.116 46.4983 53.6734 47.7769 53.9357 49.3506C54.0996 50.2358 54.0012 52.3668 53.7717 53.252C53.0505 56.0387 51.4112 58.2681 49.0179 59.5467C48.6573 59.7434 48.3622 59.8745 48.3295 59.8745C48.2967 59.8745 48.4278 59.5467 48.6245 59.1533C49.4114 57.4812 49.5097 55.8748 48.9196 54.0716C48.5589 52.9569 47.8049 51.6128 46.2968 49.3506C44.4936 46.7278 44.0674 46.0393 43.6084 45.0886Z" fill="white"/>
<path d="M19.1807 55.1208C21.6067 53.0882 24.5902 51.6456 27.3441 51.1867C28.5243 50.99 30.4914 51.0555 31.5733 51.3506C33.3109 51.8096 34.8846 52.7931 35.7042 54.0062C36.4911 55.1864 36.8517 56.2027 37.2123 58.4649C37.3435 59.3501 37.5074 60.2681 37.5402 60.4648C37.8025 61.645 38.327 62.563 38.9827 63.0548C39.999 63.8088 41.7694 63.8416 43.507 63.1859C43.8021 63.0876 44.0644 62.9892 44.0644 63.022C44.1299 63.0876 43.2447 63.6777 42.6546 63.9727C41.835 64.3989 41.1793 64.5301 40.2941 64.5301C38.7204 64.5301 37.3763 63.7105 36.2944 62.0712C36.0649 61.7434 35.6059 60.7926 35.2125 59.9074C34.065 57.2519 33.4749 56.465 32.1307 55.5798C30.9504 54.8258 29.4423 54.6619 28.2949 55.2192C26.7868 55.9405 26.3933 57.8748 27.4424 59.055C27.8686 59.5468 28.6555 59.9402 29.3112 60.0386C30.5242 60.2025 31.5733 59.2517 31.5733 58.0387C31.5733 57.2519 31.2783 56.7929 30.4914 56.4322C29.4423 55.9732 28.2949 56.4978 28.3276 57.5141C28.3276 57.9403 28.5243 58.2026 28.9506 58.3993C29.2128 58.5305 29.2128 58.5305 29.0161 58.4977C28.0654 58.301 27.8359 57.1207 28.5899 56.3667C29.5079 55.4487 31.4422 55.8421 32.0979 57.1207C32.3602 57.6453 32.393 58.6944 32.1635 59.3501C31.6061 60.7926 30.0324 61.5467 28.426 61.1205C27.3441 60.8254 26.8851 60.5303 25.5737 59.1862C23.2788 56.8257 22.3936 56.3667 19.1151 55.8749L18.4922 55.7765L19.1807 55.1208Z" fill="white"/>
<path fill-rule="evenodd" clip-rule="evenodd" d="M1.93646 2.36995C9.57532 11.6481 21.3451 26.0734 21.9352 26.8602C22.427 27.5159 22.2303 28.1388 21.4106 28.5978C20.9517 28.8601 20.0009 29.1224 19.5419 29.1224C19.0174 29.1224 18.3944 28.8601 17.9682 28.4339C17.6732 28.1388 16.3946 26.2701 13.5095 21.7786C11.3129 18.3362 9.44418 15.4839 9.4114 15.4511C9.28026 15.3855 9.28026 15.3855 13.28 22.5326C15.8044 27.0242 16.6241 28.6306 16.6241 28.8273C16.6241 29.2535 16.4929 29.483 15.9684 30.0731C15.0832 31.0567 14.6898 32.1714 14.3947 34.4991C14.0668 37.0891 13.1817 38.925 10.6572 42.0396C9.1819 43.8756 8.95241 44.2034 8.59178 44.9575C8.13279 45.8754 8.00165 46.4 7.93608 47.5802C7.87051 48.8261 8.00165 49.6129 8.36228 50.7932C8.69013 51.8423 9.05076 52.5308 9.93595 53.8749C10.69 55.0552 11.149 55.9404 11.149 56.2682C11.149 56.5305 11.2146 56.5305 12.3948 56.2682C15.2143 55.6125 17.542 54.4978 18.8206 53.1209C19.6075 52.2685 19.8042 51.8095 19.8042 50.6292C19.8042 49.8752 19.7714 49.7113 19.5747 49.2523C19.2468 48.531 18.6239 47.9409 17.2798 47.0229C15.5094 45.8099 14.7553 44.8263 14.5586 43.5149C14.3947 42.4002 14.5914 41.6462 15.5749 39.5807C16.5913 37.4497 16.8536 36.5645 17.0175 34.4007C17.1158 33.0238 17.2798 32.4664 17.6732 32.0402C18.0994 31.5812 18.46 31.4173 19.4763 31.2862C21.1484 31.0567 22.2303 30.6305 23.0827 29.8109C23.8367 29.1224 24.1646 28.4339 24.1974 27.4176L24.2301 26.6635L23.8039 26.2045C22.2631 24.4341 0.920125 0.960205 0.821771 0.960205C0.788986 0.960205 1.31354 1.58312 1.93646 2.36995ZM12.0014 48.99C12.362 48.3671 12.1653 47.5802 11.5752 47.1868C11.0179 46.8262 10.1654 46.9901 10.1654 47.4819C10.1654 47.613 10.231 47.7442 10.4277 47.8097C10.7228 47.9737 10.7556 48.1376 10.5261 48.4982C10.2966 48.8589 10.2966 49.1867 10.5917 49.4162C11.0506 49.7768 11.6736 49.5801 12.0014 48.99Z" fill="white"/>
<path fill-rule="evenodd" clip-rule="evenodd" d="M25.2786 31.7453C24.4918 31.9748 23.7377 32.8272 23.5082 33.6796C23.3771 34.2042 23.4427 35.1549 23.6722 35.45C24.0328 35.909 24.3606 36.0401 25.2786 36.0401C27.0818 36.0401 28.6227 35.2533 28.7866 34.3025C28.9505 33.5157 28.262 32.4338 27.3113 31.942C26.8195 31.6797 25.8032 31.5814 25.2786 31.7453ZM27.3769 33.3845C27.6391 32.9911 27.5408 32.5649 27.049 32.2699C26.1638 31.7125 24.8196 32.1715 24.8196 33.0239C24.8196 33.4501 25.5081 33.9091 26.1638 33.9091C26.59 33.9091 27.1801 33.6468 27.3769 33.3845Z" fill="white"/>
</svg>
