<svg width="90" height="38" viewBox="0 0 90 38" fill="none" xmlns="http://www.w3.org/2000/svg">
<path fill-rule="evenodd" clip-rule="evenodd" d="M5.43585 0.939453H20.101C29.0213 0.939453 35.783 5.73408 38.2986 12.7109H42.8669V16.9277H39.2606C39.3312 17.5941 39.3672 18.2729 39.3672 18.9627V19.0663C39.3672 19.8428 39.3216 20.6062 39.2324 21.3538H42.8669V25.5707H38.2116C35.6299 32.4504 28.9204 37.1993 20.101 37.1993H5.43585V25.5707H0.339844V21.3538H5.43585V16.9277H0.339844V12.7109H5.43585V0.939453ZM9.53562 25.5707V33.4165H20.101C26.6208 33.4165 31.4646 30.2742 33.7195 25.5707H9.53562ZM34.9755 21.3538H9.53562V16.9277H34.982C35.0764 17.6242 35.1245 18.3382 35.1245 19.0663V19.1699C35.1245 19.9146 35.0741 20.6438 34.9755 21.3538ZM20.101 4.71604C26.6508 4.71604 31.5092 7.94129 33.7505 12.7109H9.53562V4.71604H20.101Z" fill="white"/>
<path fill-rule="evenodd" clip-rule="evenodd" d="M73.7535 20.6856C73.5233 20.7028 72.334 20.7734 69.6809 20.7734C67.5707 20.7734 66.0724 20.7104 65.5468 20.6856C57.3918 20.3288 51.3049 18.9169 51.3049 17.2265C51.3049 15.5361 57.3918 14.1261 65.5468 13.7636V19.2794C66.0801 19.3176 67.6071 19.4073 69.7173 19.4073C72.2495 19.4073 73.5176 19.3023 73.7459 19.2814V13.7674C81.8836 14.128 87.9571 15.5399 87.9571 17.2265C87.9571 18.9131 81.8855 20.325 73.7459 20.6837L73.7535 20.6856ZM73.7535 13.197V8.26116H85.1102V0.734375H54.1901V8.26116H65.5449V13.1951C56.3156 13.6167 49.375 15.435 49.375 17.6138C49.375 19.7927 56.3156 21.609 65.5449 22.0326V37.8493H73.7516V22.0269C82.9598 21.6052 89.8889 19.7889 89.8889 17.6119C89.8889 15.435 82.9655 13.6186 73.7516 13.1951L73.7535 13.197Z" fill="white"/>
</svg>
