<svg width="81" height="44" viewBox="0 0 81 44" fill="none" xmlns="http://www.w3.org/2000/svg">
<path d="M67.0696 30.3104L80.2873 22.4986L67.0696 0.566895L53.8518 22.4986L67.0696 30.3104Z" fill="white"/>
<path d="M67.0693 43.6286L80.2942 25.0049L67.0693 32.8095L53.8516 25.0049L67.0693 43.6286Z" fill="white"/>
<path fill-rule="evenodd" clip-rule="evenodd" d="M5.08561 4.41992H19.6758C28.5506 4.41992 35.2778 9.19007 37.7805 16.1312H42.3255V20.3266H38.7376C38.8079 20.9895 38.8437 21.6649 38.8437 22.3511V22.4542C38.8437 23.2268 38.7984 23.9862 38.7096 24.7301H42.3255V28.9254H37.694C35.1254 35.77 28.4503 40.4946 19.6758 40.4946H5.08561V28.9254H0.015625V24.7301H5.08561V20.3266H0.015625V16.1312H5.08561V4.41992ZM9.16444 28.9254V36.7311H19.6758C26.1623 36.7311 30.9815 33.6049 33.2248 28.9254H9.16444ZM34.4744 24.7301H9.16444V20.3266H34.4809C34.5748 21.0195 34.6227 21.7299 34.6227 22.4542V22.5572C34.6227 23.2982 34.5726 24.0237 34.4744 24.7301ZM19.6758 8.17723C26.1922 8.17723 31.0258 11.386 33.2556 16.1312H9.16444V8.17723H19.6758Z" fill="white"/>
</svg>
