<svg width="80" height="45" viewBox="0 0 80 45" fill="none" xmlns="http://www.w3.org/2000/svg">
<path d="M66.0617 30.7118L79.2795 22.9L66.0617 0.968262L52.844 22.9L66.0617 30.7118Z" fill="white"/>
<path d="M66.0615 44.03L79.2864 25.4062L66.0615 33.2109L52.8438 25.4062L66.0615 44.03Z" fill="white"/>
<path d="M28.0216 26.8944C28.0216 22.9162 25.6346 21.5522 20.8607 20.984C17.4507 20.5292 16.7687 19.62 16.7687 18.0285C16.7687 16.437 17.9055 15.4143 20.1787 15.4143C22.2246 15.4143 23.3614 16.0963 23.9296 17.8012C24.0434 18.1422 24.3844 18.3695 24.7254 18.3695H26.5438C26.9986 18.3695 27.3396 18.0285 27.3396 17.574V17.4602C26.8848 14.9595 24.8388 13.0273 22.2246 12.8001V10.0721C22.2246 9.61735 21.8836 9.27635 21.3154 9.1626H19.6104C19.1557 9.1626 18.8147 9.50359 18.7009 10.0721V12.6863C15.291 13.1411 13.1315 15.4143 13.1315 18.256C13.1315 22.0069 15.4047 23.4844 20.1787 24.0529C23.3614 24.6212 24.3844 25.3031 24.3844 27.1219C24.3844 28.9406 22.7929 30.1908 20.6334 30.1908C17.6779 30.1908 16.655 28.9403 16.314 27.2354C16.2005 26.7809 15.8595 26.5534 15.5185 26.5534H13.586C13.1315 26.5534 12.7905 26.8944 12.7905 27.3491V27.4629C13.245 30.3043 15.0637 32.3503 18.8147 32.9188V35.6468C18.8147 36.1012 19.1557 36.4422 19.7239 36.556H21.4289C21.8836 36.556 22.2246 36.215 22.3384 35.6468V32.9188C25.7484 32.3503 28.0216 29.9633 28.0216 26.8944Z" fill="white"/>
<path d="M14.7261 38.829C5.86023 35.6465 1.31354 25.7577 4.61001 17.0053C6.31498 12.2313 10.0659 8.59412 14.7261 6.88915C15.1809 6.66191 15.4081 6.32091 15.4081 5.7524V4.16118C15.4081 3.70643 15.1809 3.36544 14.7261 3.25195C14.6124 3.25195 14.3851 3.25195 14.2714 3.36544C3.47326 6.77539 -2.43741 18.2558 0.972539 29.0539C3.01851 35.419 7.9062 40.3067 14.2714 42.3527C14.7261 42.5799 15.1809 42.3527 15.2943 41.8979C15.4081 41.7844 15.4081 41.6707 15.4081 41.4434V39.8519C15.4081 39.511 15.0671 39.0565 14.7261 38.829ZM26.7747 3.36544C26.32 3.1382 25.8652 3.36544 25.7517 3.82019C25.638 3.93394 25.638 4.04743 25.638 4.27494V5.86616C25.638 6.32091 25.979 6.77539 26.32 7.0029C35.1858 10.1853 39.7325 20.0742 36.4361 28.8266C34.7311 33.6005 30.9801 37.2377 26.32 38.9427C25.8652 39.17 25.638 39.511 25.638 40.0795V41.6707C25.638 42.1254 25.8652 42.4664 26.32 42.5799C26.4337 42.5799 26.661 42.5799 26.7747 42.4664C37.5728 39.0565 43.4835 27.5761 40.0735 16.778C38.0276 10.2991 33.0261 5.41141 26.7747 3.36544Z" fill="white"/>
</svg>
