<svg width="90" height="57" viewBox="0 0 90 57" fill="none" xmlns="http://www.w3.org/2000/svg">
<path d="M75.383 40.3492L89.1772 32.1967L75.383 9.30859L61.5889 32.1967L75.383 40.3492Z" fill="white"/>
<path d="M75.383 54.2479L89.1846 34.812L75.383 42.957L61.5889 34.812L75.383 54.2479Z" fill="white"/>
<path d="M19.959 13.4079C19.3507 13.321 19.3217 13.292 19.6114 13.2631C20.1618 13.1762 21.4363 13.292 22.3342 13.4948C24.4198 13.9872 26.3026 15.2618 28.3013 17.4922L28.8227 18.1005L29.5758 17.9846C32.7911 17.4632 36.0933 17.8687 38.8451 19.1432C39.5982 19.4908 40.7858 20.186 40.9306 20.3598C40.9886 20.4178 41.0755 20.7943 41.1334 21.1709C41.3362 22.5323 41.2493 23.5461 40.8148 24.3282C40.583 24.7627 40.583 24.8786 40.7279 25.2551C40.8437 25.5448 41.1913 25.7476 41.51 25.7476C42.2051 25.7476 42.9293 24.6468 43.2769 23.1116L43.4217 22.5033L43.6824 22.793C45.1597 24.4441 46.3184 26.7324 46.4922 28.3545L46.5501 28.789L46.2894 28.4125C45.8549 27.7462 45.4494 27.3118 44.899 26.9352C43.9142 26.269 42.8714 26.0662 40.1196 25.9214C37.6285 25.7765 36.2091 25.5738 34.8187 25.1103C32.4435 24.3282 31.2269 23.3144 28.4172 19.5777C27.1716 17.9267 26.3895 17.0287 25.6074 16.2756C23.8984 14.6245 22.1894 13.7555 19.959 13.4079Z" fill="white"/>
<path d="M41.5403 17.0866C41.5982 15.9858 41.7431 15.2617 42.0617 14.5955C42.1776 14.3348 42.2934 14.103 42.3224 14.103C42.3514 14.103 42.2934 14.3058 42.2065 14.5375C41.9748 15.1748 41.9458 16.0727 42.0907 17.0866C42.2934 18.39 42.3803 18.5638 43.7707 19.9832C44.408 20.6494 45.1611 21.4894 45.4508 21.837L45.9432 22.4743L45.4508 22.0108C44.8425 21.4315 43.4521 20.3308 43.1335 20.186C42.9307 20.0701 42.9017 20.0701 42.7569 20.2149C42.641 20.3308 42.6121 20.5046 42.6121 21.3446C42.5831 22.6481 42.4093 23.4592 41.9748 24.2992C41.7431 24.7337 41.7141 24.6468 41.9169 24.1543C42.0617 23.7778 42.0907 23.604 42.0907 22.3584C42.0907 19.8384 41.801 19.2301 40.0341 18.2162C39.5996 17.9556 38.8464 17.579 38.412 17.3762C37.9485 17.1735 37.6009 16.9997 37.6299 16.9997C37.6878 16.9417 39.3968 17.4342 40.063 17.7238C41.0769 18.1293 41.2507 18.1583 41.3665 18.1293C41.4534 18.0425 41.5113 17.8107 41.5403 17.0866Z" fill="white"/>
<path d="M21.1507 21.4025C19.9342 19.7224 19.1521 17.1154 19.3259 15.1747L19.3838 14.5664L19.6735 14.6243C20.1949 14.7112 21.0928 15.0588 21.5273 15.3195C22.686 16.0147 23.2074 16.9706 23.6998 19.3459C23.8446 20.041 24.0474 20.8521 24.1343 21.1128C24.2791 21.5473 24.8295 22.5611 25.2929 23.1984C25.6116 23.6618 25.4088 23.8936 24.6846 23.8356C23.5839 23.7198 22.1066 22.7059 21.1507 21.4025Z" fill="white"/>
<path d="M40.0516 34.0029C34.3162 31.6856 32.2886 29.6869 32.2886 26.2979C32.2886 25.8054 32.3175 25.3999 32.3175 25.3999C32.3465 25.3999 32.5493 25.5737 32.81 25.7765C33.9686 26.7034 35.2721 27.1089 38.8929 27.6303C41.0074 27.9489 42.224 28.1807 43.3247 28.5572C46.8297 29.7159 49.0022 32.0911 49.5235 35.3064C49.6684 36.2333 49.5815 38.0003 49.3497 38.9272C49.147 39.6513 48.5677 40.9838 48.4228 41.0128C48.3939 41.0128 48.3359 40.8679 48.3359 40.6362C48.278 39.4196 47.6697 38.261 46.6559 37.363C45.4393 36.3202 43.8751 35.5381 40.0516 34.0029Z" fill="white"/>
<path d="M36.0048 34.9587C35.9468 34.5242 35.802 33.9738 35.7151 33.7421L35.5703 33.3076L35.831 33.6262C36.2075 34.0607 36.4972 34.5821 36.7579 35.3063C36.9607 35.8567 36.9607 36.0305 36.9607 36.9284C36.9607 37.7974 36.9317 38.0002 36.7579 38.4926C36.4682 39.2747 36.1206 39.825 35.5413 40.4333C34.4985 41.5051 33.1371 42.0844 31.1964 42.3451C30.8488 42.3741 29.8639 42.461 28.9949 42.5189C26.8224 42.6348 25.3741 42.8665 24.0706 43.33C23.8968 43.3879 23.723 43.4458 23.6941 43.4169C23.6361 43.3589 24.5341 42.8375 25.2583 42.4899C26.2721 41.9975 27.3149 41.7368 29.6032 41.3313C30.7329 41.1575 31.8915 40.9258 32.1812 40.8099C35.0489 39.9119 36.4682 37.6815 36.0048 34.9587Z" fill="white"/>
<path d="M38.6423 39.6223C37.8891 37.9713 37.7153 36.4071 38.1209 34.9298C38.1788 34.785 38.2367 34.6401 38.2947 34.6401C38.3526 34.6401 38.5264 34.727 38.7002 34.8429C39.0478 35.0746 39.7719 35.4802 41.6258 36.494C43.9721 37.7685 45.3045 38.7534 46.2314 39.883C47.0425 40.8679 47.5349 41.9976 47.7667 43.388C47.9115 44.1701 47.8246 46.0529 47.6218 46.835C46.9846 49.2971 45.5362 51.2668 43.4217 52.3965C43.1031 52.5703 42.8424 52.6862 42.8134 52.6862C42.7844 52.6862 42.9003 52.3965 43.0741 52.0489C43.7693 50.5716 43.8562 49.1523 43.3348 47.5591C43.0162 46.5743 42.3499 45.3867 41.0175 43.388C39.4243 41.0707 39.0478 40.4624 38.6423 39.6223Z" fill="white"/>
<path d="M17.0643 48.4864C19.2079 46.6905 21.8438 45.416 24.277 45.0105C25.3198 44.8367 27.0577 44.8946 28.0136 45.1553C29.5488 45.5608 30.9392 46.4298 31.6634 47.5016C32.3586 48.5444 32.6772 49.4423 32.9958 51.441C33.1117 52.2231 33.2565 53.0342 33.2855 53.208C33.5172 54.2507 33.9807 55.0618 34.56 55.4963C35.458 56.1625 37.0222 56.1915 38.5574 55.6122C38.8181 55.5253 39.0498 55.4384 39.0498 55.4673C39.1077 55.5253 38.3256 56.0467 37.8042 56.3074C37.0801 56.6839 36.5008 56.7998 35.7187 56.7998C34.3283 56.7998 33.1407 56.0756 32.1848 54.6273C31.982 54.3376 31.5765 53.4976 31.2289 52.7155C30.2151 50.3693 29.6937 49.6741 28.5061 48.892C27.4633 48.2257 26.1308 48.0809 25.117 48.5733C23.7845 49.2106 23.4369 50.9196 24.3639 51.9624C24.7404 52.3969 25.4356 52.7445 26.0149 52.8314C27.0867 52.9762 28.0136 52.1362 28.0136 51.0644C28.0136 50.3693 27.7529 49.9637 27.0577 49.6451C26.1308 49.2396 25.117 49.703 25.146 50.601C25.146 50.9775 25.3198 51.2093 25.6963 51.3831C25.928 51.4989 25.928 51.4989 25.7542 51.47C24.9142 51.2962 24.7115 50.2534 25.3777 49.5872C26.1887 48.7761 27.8978 49.1237 28.4771 50.2534C28.7088 50.7168 28.7378 51.6438 28.535 52.2231C28.0426 53.4976 26.6522 54.1638 25.2329 53.7873C24.277 53.5266 23.8714 53.2659 22.7128 52.0783C20.6851 49.9927 19.903 49.5872 17.0064 49.1527L16.4561 49.0658L17.0643 48.4864Z" fill="white"/>
<path fill-rule="evenodd" clip-rule="evenodd" d="M1.82599 1.87885C8.57514 10.0763 18.9741 22.8215 19.4955 23.5167C19.93 24.096 19.7562 24.6464 19.032 25.0519C18.6265 25.2837 17.7864 25.5154 17.3809 25.5154C16.9174 25.5154 16.3671 25.2837 15.9905 24.9071C15.7298 24.6464 14.6001 22.9953 12.0511 19.0269C10.1104 15.9855 8.45928 13.4654 8.43031 13.4364C8.31445 13.3785 8.31445 13.3785 11.8483 19.6932C14.0787 23.6615 14.8029 25.0809 14.8029 25.2547C14.8029 25.6313 14.687 25.834 14.2236 26.3554C13.4415 27.2244 13.0939 28.2093 12.8332 30.2659C12.5435 32.5542 11.7614 34.1763 9.53103 36.9281C8.22755 38.5502 8.02479 38.8399 7.70615 39.5061C7.30063 40.3172 7.18476 40.7807 7.12683 41.8234C7.0689 42.9242 7.18476 43.6194 7.50339 44.6621C7.79305 45.5891 8.11168 46.1974 8.89377 47.385C9.56 48.4278 9.96553 49.2099 9.96553 49.4995C9.96553 49.7313 10.0235 49.7313 11.0662 49.4995C13.5574 48.9202 15.614 47.9353 16.7437 46.7188C17.4388 45.9656 17.6126 45.5601 17.6126 44.5173C17.6126 43.8511 17.5837 43.7063 17.4099 43.3007C17.1202 42.6635 16.5699 42.1421 15.3822 41.331C13.8181 40.2593 13.1518 39.3903 12.978 38.2316C12.8332 37.2468 13.007 36.5805 13.876 34.7557C14.7739 32.8728 15.0057 32.0907 15.1505 30.179C15.2374 28.9624 15.3822 28.47 15.7298 28.0934C16.1064 27.6879 16.425 27.543 17.323 27.4272C18.8003 27.2244 19.7562 26.8478 20.5093 26.1237C21.1755 25.5154 21.4652 24.9071 21.4941 24.0091L21.5231 23.3429L21.1465 22.9374C19.7851 21.3732 0.928031 0.633301 0.841132 0.633301C0.812166 0.633301 1.27563 1.18366 1.82599 1.87885ZM10.7187 43.069C11.0373 42.5186 10.8635 41.8234 10.3421 41.4758C9.84966 41.1572 9.09654 41.302 9.09654 41.7365C9.09654 41.8524 9.15447 41.9683 9.32827 42.0262C9.58897 42.171 9.61793 42.3159 9.41517 42.6345C9.2124 42.9531 9.2124 43.2428 9.4731 43.4456C9.87863 43.7642 10.429 43.5904 10.7187 43.069Z" fill="white"/>
<path fill-rule="evenodd" clip-rule="evenodd" d="M22.4477 27.833C21.7525 28.0358 21.0863 28.7889 20.8835 29.542C20.7677 30.0055 20.8256 30.8455 21.0283 31.1062C21.347 31.5117 21.6366 31.6276 22.4477 31.6276C24.0408 31.6276 25.4023 30.9324 25.5471 30.0924C25.6919 29.3972 25.0836 28.4413 24.2436 28.0068C23.8091 27.7751 22.9112 27.6882 22.4477 27.833ZM24.3015 29.2813C24.5333 28.9337 24.4464 28.5572 24.0119 28.2965C23.2298 27.804 22.0422 28.2096 22.0422 28.9627C22.0422 29.3393 22.6505 29.7448 23.2298 29.7448C23.6064 29.7448 24.1277 29.5131 24.3015 29.2813Z" fill="white"/>
</svg>
