<svg width="99" height="45" viewBox="0 0 99 45" fill="none" xmlns="http://www.w3.org/2000/svg">
<path fill-rule="evenodd" clip-rule="evenodd" d="M60.4873 4.66016H75.2555C84.2385 4.66016 91.0477 9.48848 93.5809 16.5143H98.1813V20.7608H94.5497C94.6208 21.4318 94.6571 22.1155 94.6571 22.8101V22.9144C94.6571 23.6964 94.6112 24.4651 94.5213 25.218H98.1813V29.4645H93.4934C90.8935 36.3926 84.1369 41.1748 75.2555 41.1748H60.4873V29.4645H55.3555V25.218H60.4873V20.7608H55.3555V16.5143H60.4873V4.66016ZM64.6159 29.4645V37.3654H75.2555C81.8211 37.3654 86.699 34.201 88.9697 29.4645H64.6159ZM90.2345 25.218H64.6159V20.7608H90.2411C90.3361 21.4622 90.3846 22.1812 90.3846 22.9144V23.0187C90.3846 23.7687 90.3339 24.503 90.2345 25.218ZM75.2555 8.46329C81.8513 8.46329 86.7439 11.7112 89.0009 16.5143H64.6159V8.46329H75.2555Z" fill="white"/>
<path d="M36.2681 10.1439L35.0593 11.3527C37.9437 14.507 39.5433 18.6266 39.5433 22.9009C39.5433 27.1751 37.9437 31.2947 35.0593 34.449L36.2681 35.6578C39.4759 32.1784 41.2568 27.6192 41.2568 22.8868C41.2568 18.1543 39.4759 13.5951 36.2681 10.1157V10.1439Z" fill="white"/>
<path d="M10.8532 10.2488C14.0075 7.36436 18.1271 5.7648 22.4013 5.7648C26.6756 5.7648 30.7952 7.36436 33.9495 10.2488L35.1583 9.03996C31.6788 5.83219 27.1197 4.05127 22.3872 4.05127C17.6548 4.05127 13.0956 5.83219 9.61621 9.03996L10.8532 10.2488Z" fill="white"/>
<path d="M9.71947 34.4614C6.83847 31.3078 5.24103 27.1908 5.24103 22.9193C5.24103 18.6479 6.83847 14.5309 9.71947 11.3773L8.51066 10.1685C5.30289 13.6479 3.52197 18.207 3.52197 22.9395C3.52197 27.6719 5.30289 32.2311 8.51066 35.7105L9.71947 34.4614Z" fill="white"/>
<path d="M33.9278 35.5776C30.7735 38.462 26.654 40.0616 22.3797 40.0616C18.1055 40.0616 13.9859 38.462 10.8316 35.5776L9.6228 36.7864C13.1022 39.9942 17.6614 41.7751 22.3938 41.7751C27.1263 41.7751 31.6854 39.9942 35.1649 36.7864L33.9278 35.5776Z" fill="white"/>
<path d="M30.021 18.8839C29.7793 16.3615 27.6034 15.5154 24.8514 15.2575V11.7842H22.7239V15.193C22.1638 15.193 21.5916 15.193 21.0235 15.193V11.7842H18.9121V15.2817H14.5967V17.5582C14.5967 17.5582 16.1681 17.53 16.144 17.5582C16.4273 17.5271 16.7117 17.6071 16.9372 17.7815C17.1627 17.9559 17.3117 18.211 17.3528 18.493V28.0668C17.3467 28.1663 17.3208 28.2635 17.2765 28.3528C17.2322 28.4421 17.1704 28.5216 17.0949 28.5866C17.0207 28.6528 16.934 28.7034 16.8398 28.7352C16.7456 28.7671 16.646 28.7796 16.5469 28.7719C16.5751 28.7961 14.9996 28.7719 14.9996 28.7719L14.5967 31.3144H18.8718V34.8683H20.9993V31.3668H22.6997V34.8522H24.8312V31.3386C28.4254 31.121 30.9317 30.2346 31.246 26.8701C31.4998 24.1623 30.2265 22.9535 28.1917 22.466C29.4287 21.8576 30.1943 20.7293 30.021 18.8839ZM27.0393 26.451C27.0393 29.0943 22.5103 28.7921 21.0678 28.7921V24.1019C22.5103 24.1059 27.0393 23.6909 27.0393 26.451ZM26.0521 19.8429C26.0521 22.2605 22.2726 21.9663 21.0718 21.9663V17.7033C22.2726 17.7033 26.0521 17.3245 26.0521 19.8429Z" fill="white"/>
<path d="M22.3833 44.9295C18.03 44.9287 13.7747 43.6371 10.1554 41.2181C6.53614 38.799 3.71539 35.3611 2.04983 31.339C0.384266 27.317 -0.0513121 22.8914 0.798168 18.6218C1.64765 14.3522 3.74404 10.4303 6.82228 7.35206C9.90052 4.27382 13.8224 2.17743 18.092 1.32795C22.3616 0.478473 26.7872 0.914051 30.8093 2.57961C34.8313 4.24518 38.2692 7.06593 40.6883 10.6852C43.1073 14.3045 44.3989 18.5598 44.3997 22.9131C44.4002 25.8045 43.8311 28.6677 42.7249 31.339C41.6186 34.0104 39.997 36.4377 37.9524 38.4822C35.9079 40.5267 33.4806 42.1484 30.8093 43.2547C28.1379 44.3609 25.2747 44.93 22.3833 44.9295ZM22.3833 2.6213C18.3726 2.62449 14.4529 3.81661 11.1195 6.047C7.78616 8.27739 5.18884 11.4459 3.65585 15.1521C2.12285 18.8583 1.72299 22.9357 2.50681 26.8691C3.29063 30.8025 5.22294 34.4152 8.05951 37.2507C10.8961 40.0861 14.5096 42.017 18.4433 42.7993C22.377 43.5815 26.4543 43.18 30.1598 41.6456C33.8654 40.1111 37.0329 37.5125 39.262 34.1783C41.491 30.8441 42.6816 26.9238 42.6832 22.9131C42.6843 20.2474 42.1599 17.6076 41.14 15.1447C40.1201 12.6817 38.6247 10.444 36.7394 8.55942C34.854 6.67483 32.6157 5.18036 30.1524 4.16145C27.6891 3.14254 25.0491 2.61918 22.3833 2.6213Z" fill="white"/>
</svg>
