<svg width="82" height="44" viewBox="0 0 82 44" fill="none" xmlns="http://www.w3.org/2000/svg">
<path d="M13.6165 29.9272L26.8696 22.0945L13.6165 0.104004L0.363281 22.0945L13.6165 29.9272Z" fill="white"/>
<path d="M13.6165 43.2811L26.8768 24.6074L13.6165 32.433L0.363281 24.6074L13.6165 43.2811Z" fill="white"/>
<path fill-rule="evenodd" clip-rule="evenodd" d="M65.7683 22.6536C65.5432 22.6704 64.3804 22.7394 61.7865 22.7394C59.7233 22.7394 58.2585 22.6779 57.7446 22.6536C49.7716 22.3048 43.8204 20.9244 43.8204 19.2717C43.8204 17.619 49.7716 16.2405 57.7446 15.886V21.2788C58.266 21.3161 59.759 21.4038 61.8221 21.4038C64.2979 21.4038 65.5376 21.3012 65.7608 21.2807V15.8898C73.7169 16.2423 79.655 17.6227 79.655 19.2717C79.655 20.9207 73.7188 22.301 65.7608 22.6517L65.7683 22.6536ZM65.7683 15.332V10.5063H76.8717V3.14746H46.6413V10.5063H57.7427V15.3302C48.7194 15.7424 41.9336 17.5201 41.9336 19.6504C41.9336 21.7806 48.7194 23.5564 57.7427 23.9705V39.4344H65.7664V23.965C74.7691 23.5527 81.5437 21.7769 81.5437 19.6485C81.5437 17.5201 74.7748 15.7443 65.7664 15.3302L65.7683 15.332Z" fill="white"/>
</svg>
