<svg width="79" height="46" viewBox="0 0 79 46" fill="none" xmlns="http://www.w3.org/2000/svg">
<path d="M64.7928 31.7555L78.5744 23.6104L64.7928 0.743164L51.0112 23.6104L64.7928 31.7555Z" fill="white"/>
<path d="M64.7928 45.6418L78.5819 26.2236L64.7928 34.3612L51.0112 26.2236L64.7928 45.6418Z" fill="white"/>
<path d="M18.1994 4.24365L14.4014 6.42749L4.05188 12.4093L0.253906 14.5931V35.2921L4.05188 37.476L14.4963 43.4578L18.2943 45.6416L22.0923 43.4578L32.3468 37.476L36.1448 35.2921V14.5931L32.3468 12.4093L21.9973 6.42749L18.1994 4.24365ZM7.84986 30.9244V18.9608L18.1994 12.979L28.5488 18.9608V30.9244L18.1994 36.9063L7.84986 30.9244Z" fill="white"/>
</svg>
