<svg width="82" height="46" viewBox="0 0 82 46" fill="none" xmlns="http://www.w3.org/2000/svg">
<path d="M68.1399 30.1761L81.3576 22.3643L68.1399 0.432617L54.9221 22.3643L68.1399 30.1761Z" fill="white"/>
<path d="M68.1396 43.4943L81.3645 24.8706L68.1396 32.6752L54.9219 24.8706L68.1396 43.4943Z" fill="white"/>
<path d="M35.2552 11.6494L34.0847 12.8198C36.8776 15.8741 38.4264 19.8629 38.4264 24.0016C38.4264 28.1402 36.8776 32.1291 34.0847 35.1833L35.2552 36.3538C38.3612 32.9847 40.0856 28.5702 40.0856 23.9879C40.0856 19.4056 38.3612 14.9911 35.2552 11.6221V11.6494Z" fill="white"/>
<path d="M10.6445 11.7509C13.6988 8.95797 17.6876 7.40917 21.8263 7.40917C25.965 7.40917 29.9538 8.95797 33.008 11.7509L34.1785 10.5804C30.8094 7.47442 26.3949 5.75 21.8126 5.75C17.2303 5.75 12.8158 7.47442 9.44678 10.5804L10.6445 11.7509Z" fill="white"/>
<path d="M9.54603 35.1951C6.75645 32.1415 5.20968 28.1551 5.20968 24.0192C5.20968 19.8833 6.75645 15.8969 9.54603 12.8433L8.37558 11.6729C5.26958 15.0419 3.54517 19.4564 3.54517 24.0387C3.54517 28.621 5.26958 33.0355 8.37558 36.4045L9.54603 35.1951Z" fill="white"/>
<path d="M32.989 36.2759C29.9348 39.0688 25.9459 40.6176 21.8073 40.6176C17.6686 40.6176 13.6798 39.0688 10.6255 36.2759L9.45508 37.4463C12.8241 40.5523 17.2386 42.2767 21.8209 42.2767C26.4032 42.2767 30.8177 40.5523 34.1868 37.4463L32.989 36.2759Z" fill="white"/>
<path d="M29.2062 20.1118C28.9721 17.6694 26.8653 16.8501 24.2006 16.6004V13.2373H22.1406V16.538C21.5983 16.538 21.0443 16.538 20.4942 16.538V13.2373H18.4498V16.6238H14.2712V18.8282C14.2712 18.8282 15.7928 18.8009 15.7694 18.8282C16.0438 18.798 16.3191 18.8755 16.5375 19.0443C16.7558 19.2132 16.9001 19.4602 16.9399 19.7333V29.0033C16.934 29.0996 16.9089 29.1938 16.866 29.2803C16.8231 29.3667 16.7633 29.4437 16.6902 29.5066C16.6184 29.5708 16.5344 29.6197 16.4432 29.6506C16.352 29.6814 16.2555 29.6935 16.1596 29.6861C16.1869 29.7095 14.6614 29.6861 14.6614 29.6861L14.2712 32.1479H18.4107V35.5891H20.4707V32.1987H22.1172V35.5735H24.1811V32.1714C27.6612 31.9607 30.088 31.1023 30.3923 27.8446C30.6381 25.2228 29.4052 24.0523 27.435 23.5802C28.6327 22.9911 29.374 21.8987 29.2062 20.1118ZM26.3191 27.4388C26.3191 29.9982 21.9338 29.7056 20.5371 29.7056V25.1642C21.9338 25.1681 26.3191 24.7663 26.3191 27.4388ZM25.3632 21.0403C25.3632 23.3812 21.7036 23.0964 20.541 23.0964V18.9686C21.7036 18.9686 25.3632 18.6019 25.3632 21.0403Z" fill="white"/>
<path d="M21.8101 45.3311C17.5949 45.3303 13.4746 44.0797 9.97014 41.7374C6.46567 39.3951 3.73441 36.0663 2.12169 32.1718C0.508972 28.2773 0.0872132 23.9921 0.909742 19.858C1.73227 15.7239 3.76215 11.9264 6.74273 8.94585C9.7233 5.96527 13.5207 3.9354 17.6549 3.11287C21.789 2.29034 26.0742 2.7121 29.9687 4.32482C33.8631 5.93754 37.192 8.6688 39.5343 12.1733C41.8766 15.6777 43.1272 19.798 43.128 24.0132C43.1285 26.8129 42.5774 29.5852 41.5063 32.1718C40.4351 34.7584 38.8649 37.1087 36.8852 39.0884C34.9056 41.068 32.5553 42.6383 29.9687 43.7094C27.382 44.7805 24.6097 45.3316 21.8101 45.3311ZM21.8101 4.36518C17.9266 4.36827 14.1312 5.52257 10.9036 7.6822C7.67603 9.84182 5.16112 12.9098 3.67676 16.4984C2.1924 20.087 1.80523 24.0351 2.56418 27.8437C3.32313 31.6523 5.19414 35.1504 7.94071 37.8959C10.6873 40.6414 14.1861 42.511 17.995 43.2684C21.8039 44.0259 25.7519 43.6371 29.3399 42.1513C32.9279 40.6656 35.9949 38.1494 38.1532 34.921C40.3116 31.6925 41.4644 27.8967 41.4659 24.0132C41.4669 21.432 40.9592 18.876 39.9716 16.4912C38.9841 14.1064 37.5362 11.9397 35.7107 10.1149C33.8851 8.29011 31.7178 6.84305 29.3327 5.85647C26.9475 4.86988 24.3912 4.36313 21.8101 4.36518Z" fill="white"/>
</svg>
