<svg width="73" height="46" viewBox="0 0 73 46" fill="none" xmlns="http://www.w3.org/2000/svg">
<path d="M58.7082 31.3121L72.5024 23.1596L58.7082 0.271484L44.9141 23.1596L58.7082 31.3121Z" fill="white"/>
<path d="M58.7082 45.2112L72.5098 25.7754L58.7082 33.9204L44.9141 25.7754L58.7082 45.2112Z" fill="white"/>
<path d="M35.6856 38.7469L22.0446 5.76735C21.2753 4.06223 20.1316 3.23047 18.624 3.23047H17.418C15.9104 3.23047 14.7667 4.06223 13.9973 5.76735L8.0606 20.1361H3.56907C2.22785 20.1465 1.13616 21.2278 1.12576 22.5794V22.6106C1.13616 23.9518 2.22785 25.0435 3.56907 25.0539H5.98119L0.314791 38.7469C0.21082 39.0484 0.148438 39.3603 0.148438 39.6826C0.148438 40.452 0.387569 41.055 0.813849 41.5229C1.24013 41.9907 1.85356 42.2195 2.62294 42.2195C3.13239 42.2091 3.62105 42.0531 4.02654 41.7516C4.46322 41.4501 4.76473 41.0134 5.00387 40.5144L11.2421 25.0435H15.5673C16.9085 25.0331 18.0002 23.9518 18.0106 22.6002V22.5378C18.0002 21.1966 16.9085 20.1049 15.5673 20.0945H13.2591L18.021 8.23146L30.9965 40.504C31.2356 41.003 31.5372 41.4397 31.9738 41.7412C32.3793 42.0427 32.8784 42.1987 33.3774 42.2091C34.1468 42.2091 34.7498 41.9804 35.1865 41.5125C35.6232 41.0446 35.8519 40.4416 35.8519 39.6722C35.8623 39.3603 35.8103 39.038 35.6856 38.7469Z" fill="white"/>
</svg>
