<svg width="62" height="26" viewBox="0 0 62 26" fill="none" xmlns="http://www.w3.org/2000/svg">
<path d="M53.1271 15.8611C53.1271 13.3148 51.5993 12.4418 48.5437 12.0781C46.3612 11.7871 45.9247 11.2051 45.9247 10.1865C45.9247 9.16783 46.6522 8.51324 48.1072 8.51324C49.4167 8.51324 50.1443 8.94975 50.508 10.041C50.5808 10.2593 50.7991 10.4047 51.0173 10.4047H52.1812C52.4723 10.4047 52.6906 10.1865 52.6906 9.89558V9.82277C52.3995 8.22217 51.09 6.98545 49.4167 6.84001V5.09397C49.4167 4.80291 49.1985 4.58465 48.8348 4.51184H47.7435C47.4524 4.51184 47.2342 4.7301 47.1614 5.09397V6.7672C44.9788 7.05826 43.5967 8.51324 43.5967 10.3321C43.5967 12.7329 45.0516 13.6785 48.1072 14.0424C50.1443 14.4061 50.7991 14.8426 50.7991 16.0067C50.7991 17.1708 49.7804 17.971 48.3983 17.971C46.5066 17.971 45.8519 17.1706 45.6336 16.0793C45.561 15.7885 45.3427 15.6428 45.1245 15.6428H43.8876C43.5967 15.6428 43.3784 15.8611 43.3784 16.1522V16.225C43.6693 18.0436 44.8334 19.3532 47.2342 19.717V21.4631C47.2342 21.754 47.4524 21.9722 47.8161 22.045H48.9074C49.1985 22.045 49.4167 21.8268 49.4895 21.4631V19.717C51.6721 19.3532 53.1271 17.8254 53.1271 15.8611Z" fill="white"/>
<path d="M44.6173 23.5C38.9426 21.4631 36.0325 15.1337 38.1424 9.53171C39.2337 6.47614 41.6345 4.14815 44.6173 3.05687C44.9083 2.91143 45.0538 2.69317 45.0538 2.3293V1.31084C45.0538 1.01977 44.9083 0.801517 44.6173 0.728882C44.5444 0.728882 44.399 0.728881 44.3262 0.801517C37.4148 2.98406 33.6317 10.3321 35.8143 17.2434C37.1238 21.3175 40.2522 24.4458 44.3262 25.7554C44.6173 25.9008 44.9083 25.7554 44.981 25.4643C45.0538 25.3917 45.0538 25.3189 45.0538 25.1734V24.1548C45.0538 23.9365 44.8355 23.6456 44.6173 23.5ZM52.329 0.801517C52.0379 0.656072 51.7468 0.801517 51.6742 1.09258C51.6014 1.16539 51.6014 1.23803 51.6014 1.38365V2.40211C51.6014 2.69317 51.8197 2.98406 52.0379 3.12968C57.7125 5.16661 60.6227 11.496 58.5127 17.098C57.4215 20.1536 55.0207 22.4815 52.0379 23.5728C51.7468 23.7183 51.6014 23.9365 51.6014 24.3004V25.3189C51.6014 25.6099 51.7468 25.8282 52.0379 25.9008C52.1107 25.9008 52.2562 25.9008 52.329 25.8282C59.2403 23.6456 63.0235 16.2976 60.8409 9.38626C59.5314 5.23942 56.3302 2.11104 52.329 0.801517Z" fill="white"/>
<path fill-rule="evenodd" clip-rule="evenodd" d="M4.01751 1.85925H13.356C19.0363 1.85925 23.3421 4.91239 24.944 9.35509H27.853V12.0403H25.5565C25.6015 12.4646 25.6244 12.8969 25.6244 13.3362V13.4021C25.6244 13.8966 25.5954 14.3827 25.5386 14.8588H27.853V17.544H24.8886C23.2446 21.9249 18.9721 24.9489 13.356 24.9489H4.01751V17.544H0.772461V14.8588H4.01751V12.0403H0.772461V9.35509H4.01751V1.85925ZM6.62818 17.544V22.5401H13.356C17.5077 22.5401 20.5922 20.5391 22.0281 17.544H6.62818ZM22.8279 14.8588H6.62818V12.0403H22.832C22.8921 12.4839 22.9227 12.9385 22.9227 13.4021V13.4681C22.9227 13.9423 22.8907 14.4067 22.8279 14.8588ZM13.356 4.26412C17.5268 4.26412 20.6206 6.31791 22.0478 9.35509H6.62818V4.26412H13.356Z" fill="white"/>
</svg>
