<svg width="48" height="46" viewBox="0 0 48 46" fill="none" xmlns="http://www.w3.org/2000/svg">
<path d="M32.6968 27.4883C32.6968 22.9812 29.9926 21.436 24.5841 20.7922C20.7208 20.277 19.9482 19.2469 19.9482 17.4438C19.9482 15.6408 21.236 14.4821 23.8114 14.4821C26.1293 14.4821 27.4172 15.2548 28.061 17.1864C28.1898 17.5727 28.5762 17.8302 28.9625 17.8302H31.0227C31.5379 17.8302 31.9242 17.4438 31.9242 16.9289V16.8001C31.409 13.9669 29.0911 11.7779 26.1293 11.5204V8.42982C26.1293 7.91462 25.743 7.52829 25.0993 7.39941H23.1676C22.6524 7.39941 22.2661 7.78574 22.1372 8.42982V11.3915C18.274 11.9067 15.8275 14.4821 15.8275 17.7016C15.8275 21.9512 18.4029 23.625 23.8114 24.2691C27.4172 24.9129 28.5762 25.6855 28.5762 27.746C28.5762 29.8065 26.7731 31.2229 24.3266 31.2229C20.9783 31.2229 19.8193 29.8062 19.433 27.8746C19.3044 27.3597 18.9181 27.1019 18.5318 27.1019H16.3424C15.8275 27.1019 15.4412 27.4883 15.4412 28.0035V28.1323C15.9561 31.3515 18.0166 33.6694 22.2661 34.3135V37.4041C22.2661 37.919 22.6524 38.3053 23.2962 38.4342H25.2278C25.743 38.4342 26.1293 38.0479 26.2582 37.4041V34.3135C30.1215 33.6694 32.6968 30.9652 32.6968 27.4883Z" fill="white"/>
<path d="M17.6318 41.0094C7.58741 37.4039 2.43632 26.2005 6.17099 16.2846C8.10261 10.8761 12.3522 6.75543 17.6318 4.82381C18.147 4.56636 18.4045 4.18004 18.4045 3.53596V1.73322C18.4045 1.21802 18.147 0.831694 17.6318 0.703125C17.503 0.703125 17.2455 0.703124 17.1166 0.831693C4.88314 4.69493 -1.81324 17.7014 2.05 29.9349C4.36794 37.1461 9.90535 42.6835 17.1166 45.0015C17.6318 45.2589 18.147 45.0015 18.2756 44.4863C18.4045 44.3577 18.4045 44.2288 18.4045 43.9714V42.1683C18.4045 41.782 18.0182 41.2671 17.6318 41.0094ZM31.282 0.831693C30.7668 0.574247 30.2516 0.831693 30.1231 1.34689C29.9942 1.47577 29.9942 1.60434 29.9942 1.8621V3.66484C29.9942 4.18004 30.3805 4.69493 30.7668 4.95269C40.8113 8.55817 45.9623 19.7616 42.2277 29.6774C40.2961 35.0859 36.0465 39.2066 30.7668 41.1382C30.2516 41.3957 29.9942 41.782 29.9942 42.4261V44.2288C29.9942 44.744 30.2516 45.1304 30.7668 45.2589C30.8957 45.2589 31.1532 45.2589 31.282 45.1304C43.5155 41.2671 50.2119 28.2607 46.3487 16.0272C44.0307 8.68705 38.3644 3.14964 31.282 0.831693Z" fill="white"/>
</svg>
