<svg width="41" height="38" viewBox="0 0 41 38" fill="none" xmlns="http://www.w3.org/2000/svg">
<path fill-rule="evenodd" clip-rule="evenodd" d="M24.5324 20.4248C24.3021 20.442 23.1128 20.5126 20.4597 20.5126C18.3495 20.5126 16.8512 20.4497 16.3256 20.4248C8.17064 20.0681 2.08368 18.6562 2.08368 16.9658C2.08368 15.2753 8.17064 13.8654 16.3256 13.5029V19.0187C16.8589 19.0569 18.3859 19.1465 20.4961 19.1465C23.0284 19.1465 24.2964 19.0416 24.5247 19.0206V13.5067C32.6624 13.8673 38.7359 15.2792 38.7359 16.9658C38.7359 18.6524 32.6643 20.0642 24.5247 20.4229L24.5324 20.4248ZM24.5324 12.9362V8.00041H35.8891V0.473633H4.9689V8.00041H16.3237V12.9343C7.09444 13.356 0.153809 15.1742 0.153809 17.3531C0.153809 19.5319 7.09444 21.3483 16.3237 21.7718V37.5886H24.5304V21.7661C33.7386 21.3445 40.6677 19.5281 40.6677 17.3512C40.6677 15.1742 33.7443 13.3579 24.5304 12.9343L24.5324 12.9362Z" fill="white"/>
</svg>
