<svg width="54" height="53" viewBox="0 0 54 53" fill="none" xmlns="http://www.w3.org/2000/svg">
<path d="M43.7399 11.4443L42.2969 12.8874C45.7402 16.6529 47.6497 21.5707 47.6497 26.6732C47.6497 31.7758 45.7402 36.6936 42.2969 40.4591L43.7399 41.9022C47.5693 37.7485 49.6953 32.3059 49.6953 26.6564C49.6953 21.0069 47.5693 15.5643 43.7399 11.4106V11.4443Z" fill="white"/>
<path d="M13.3947 11.5693C17.1602 8.12598 22.078 6.21647 27.1806 6.21647C32.2831 6.21647 37.2009 8.12598 40.9664 11.5693L42.4095 10.1263C38.2558 6.29692 32.8132 4.1709 27.1637 4.1709C21.5142 4.1709 16.0716 6.29692 11.918 10.1263L13.3947 11.5693Z" fill="white"/>
<path d="M12.043 40.4735C8.60369 36.7088 6.6967 31.794 6.6967 26.6948C6.6967 21.5957 8.60369 16.6809 12.043 12.9162L10.5999 11.4731C6.77055 15.6268 4.64453 21.0694 4.64453 26.7189C4.64453 32.3684 6.77055 37.811 10.5999 41.9647L12.043 40.4735Z" fill="white"/>
<path d="M40.9445 41.8059C37.1789 45.2492 32.2611 47.1588 27.1586 47.1588C22.0561 47.1588 17.1383 45.2492 13.3727 41.8059L11.9297 43.249C16.0833 47.0783 21.5259 49.2043 27.1754 49.2043C32.8249 49.2043 38.2675 47.0783 42.4212 43.249L40.9445 41.8059Z" fill="white"/>
<path d="M36.2765 21.8776C35.9879 18.8664 33.3904 17.8563 30.1051 17.5484V13.4021H27.5653V17.4715C26.8967 17.4715 26.2137 17.4715 25.5355 17.4715V13.4021H23.0149V17.5773H17.8633V20.295C17.8633 20.295 19.7392 20.2614 19.7104 20.295C20.0486 20.2578 20.3881 20.3534 20.6573 20.5615C20.9265 20.7697 21.1044 21.0743 21.1534 21.411V32.8399C21.1462 32.9587 21.1152 33.0748 21.0623 33.1813C21.0095 33.2879 20.9358 33.3828 20.8456 33.4604C20.7571 33.5395 20.6535 33.5998 20.5411 33.6379C20.4287 33.6759 20.3097 33.6908 20.1914 33.6817C20.2251 33.7105 18.3443 33.6817 18.3443 33.6817L17.8633 36.7169H22.9668V40.9594H25.5066V36.7794H27.5365V40.9402H30.081V36.7457C34.3717 36.486 37.3636 35.4278 37.7388 31.4113C38.0418 28.1789 36.5218 26.7358 34.0927 26.1538C35.5694 25.4275 36.4834 24.0806 36.2765 21.8776ZM32.717 30.911C32.717 34.0665 27.3104 33.7057 25.5884 33.7057V28.1067C27.3104 28.1115 32.717 27.6161 32.717 30.911ZM31.5385 23.0224C31.5385 25.9085 27.0266 25.5573 25.5932 25.5573V20.4682C27.0266 20.4682 31.5385 20.016 31.5385 23.0224Z" fill="white"/>
<path d="M27.1597 52.9702C21.9629 52.9692 16.883 51.4274 12.5624 48.5396C8.24175 45.6518 4.8744 41.5477 2.88609 36.7462C0.89778 31.9448 0.377797 26.6616 1.39189 21.5647C2.40597 16.4677 4.9086 11.7859 8.58333 8.11116C12.2581 4.43643 16.9399 1.93381 22.0368 0.919718C27.1338 -0.0943706 32.417 0.425612 37.2184 2.41392C42.0199 4.40223 46.1239 7.76958 49.0118 12.0902C51.8996 16.4108 53.4414 21.4907 53.4424 26.6876C53.443 30.1392 52.7636 33.5572 51.443 36.7462C50.1224 39.9353 48.1865 42.8329 45.7458 45.2736C43.3051 47.7143 40.4075 49.6502 37.2184 50.9708C34.0294 52.2914 30.6114 52.9708 27.1597 52.9702ZM27.1597 2.46368C22.3718 2.46749 17.6925 3.89062 13.7133 6.55321C9.73398 9.21579 6.63337 12.9983 4.80332 17.4227C2.97326 21.847 2.49592 26.7146 3.43163 31.4102C4.36733 36.1057 6.67408 40.4185 10.0603 43.8034C13.4465 47.1883 17.7602 49.4933 22.4562 50.4272C27.1521 51.361 32.0195 50.8817 36.4432 49.0499C40.8668 47.2181 44.6481 44.116 47.3091 40.1357C49.9701 36.1553 51.3913 31.4755 51.3932 26.6876C51.3945 23.5053 50.7685 20.3539 49.551 17.4138C48.3335 14.4736 46.5483 11.8022 44.2977 9.55247C42.047 7.3027 39.3749 5.51863 36.4343 4.30228C33.4936 3.08593 30.342 2.46116 27.1597 2.46368Z" fill="white"/>
</svg>
