<svg width="35" height="48" viewBox="0 0 35 48" fill="none" xmlns="http://www.w3.org/2000/svg">
<path d="M3.61589 21.1665L3.24041 21.7425C-0.993763 28.2378 -0.0480603 36.7443 5.51388 42.1941C8.78614 45.4001 13.0745 47.0035 17.3632 47.0038C17.3632 47.0038 17.3632 47.0038 3.61589 21.1665Z" fill="white"/>
<path opacity="0.6" d="M17.3637 29.0191L3.61621 21.1665C17.3637 47.0038 17.3637 47.0038 17.3637 47.0038C17.3637 41.3767 17.3637 34.9288 17.3637 29.0191Z" fill="white"/>
<path opacity="0.6" d="M31.1243 21.1665L31.4998 21.7425C35.7339 28.2378 34.7882 36.7443 29.2263 42.1941C25.9542 45.4001 21.6657 47.0035 17.377 47.0038C17.377 47.0038 17.377 47.0038 31.1243 21.1665Z" fill="white"/>
<path opacity="0.2" d="M17.377 29.0191L31.1243 21.1665C17.377 47.0038 17.377 47.0038 17.377 47.0038C17.377 41.3767 17.377 34.9288 17.377 29.0191Z" fill="white"/>
<path opacity="0.2" d="M17.3792 11.4785V25.022L29.221 18.2547L17.3792 11.4785Z" fill="white"/>
<path opacity="0.6" d="M17.3796 11.4785L5.5293 18.2545L17.3796 25.022V11.4785Z" fill="white"/>
<path d="M17.3796 0.0844727L5.5293 18.2549L17.3796 11.4599V0.0844727Z" fill="white"/>
<path opacity="0.6" d="M17.3792 11.4604L29.2299 18.2558L17.3792 0.0761719V11.4604Z" fill="white"/>
</svg>
