<svg width="34" height="52" viewBox="0 0 34 52" fill="none" xmlns="http://www.w3.org/2000/svg">
<path d="M15.5801 42.3917V9.74158H19.1355V42.3917H15.5801Z" fill="white"/>
<path d="M33.6793 20.6197L22.6991 23.5315L20.2504 12.1354L23.5154 11.3976L24.8025 16.7974C24.8025 16.7974 27.7693 11.9313 23.8136 6.89253C21.4826 4.3025 20.3759 4.19262 17.7624 3.78449C15.4627 3.45485 10.1178 4.23186 8.52458 10.4715C7.8496 14.49 8.61091 17.4646 13.791 21.3575L13.5006 25.6899C13.5006 25.6899 7.71618 21.6165 6.22495 18.7596C5.07121 16.4992 3.09336 12.0333 6.66447 5.81728C8.58737 2.70924 12.3782 -0.273219 19.0574 0.0407236C22.4166 0.181998 30.6183 4.2868 29.3468 13.8778C29.1271 15.6751 28.1931 18.0689 28.1931 18.0689L32.6982 17.0643L33.6793 20.6197Z" fill="white"/>
<path d="M27.4075 46.1668C25.3983 49.2199 21.5289 52.1003 14.8655 51.6137C11.5063 51.3861 3.42224 47.0615 4.94487 37.5098C5.21172 35.7203 6.20849 33.3579 6.20849 33.3579L1.67986 34.2369L0.792969 30.6658L11.8516 28.0444L14.0021 39.5033L10.7136 40.1547L9.56768 34.7157C9.56768 34.7157 6.47534 39.4955 10.2897 44.6441C12.5501 47.2969 13.6489 47.4304 16.2625 47.9091C18.5464 48.3016 23.9149 47.658 25.673 41.4655C26.45 37.4705 25.7671 34.4724 20.697 30.4382L21.1051 26.1136C21.1051 26.1136 26.7796 30.3362 28.1923 33.2323C29.2755 35.5319 31.1356 40.0527 27.4075 46.1668Z" fill="white"/>
</svg>
