<svg width="48" height="48" viewBox="0 0 48 48" fill="none" xmlns="http://www.w3.org/2000/svg">
<path d="M37.0493 32.0139C38.7467 34.2886 40.4971 36.6162 42.2476 38.9438C38.7467 43.07 34.3971 45.715 29.1458 46.8259C23.3111 48.0426 17.7945 47.1433 12.4372 44.1809C17.2111 40.6366 21.8789 37.1452 26.5998 33.6538C27.6606 34.6589 28.6685 35.664 29.6763 36.6162C30.7902 37.6742 30.3658 37.7271 31.798 36.9336C33.7606 35.8227 35.405 34.2886 36.678 32.4371C36.7311 32.3313 36.8371 32.2255 36.8902 32.1197C36.8371 32.1197 36.8902 32.1197 37.0493 32.0139ZM16.2032 36.6691C14.8772 37.6742 13.6572 38.5735 12.4372 39.5257C11.5354 40.2134 10.6337 40.8482 9.73195 41.5359C9.36064 41.8533 9.09542 41.8533 8.67108 41.483C4.63978 37.8858 2.09369 33.4422 1.13891 28.1522C0.184126 22.8094 1.03282 17.731 3.57891 12.9171C3.63195 12.8113 3.73804 12.6526 3.79108 12.5468C3.79108 12.4939 3.84412 12.4939 3.95021 12.441C7.45108 17.0433 11.005 21.6456 14.5059 26.2478C14.3998 26.4065 14.3467 26.5123 14.2406 26.6181C13.1798 27.729 12.1189 28.8399 11.005 29.8979C10.6867 30.2153 10.6337 30.4798 10.8459 30.8501C11.9598 32.9661 13.498 34.7118 15.4076 36.1401C15.6728 36.2988 15.885 36.4575 16.2032 36.6691ZM35.9884 3.81835C34.2911 5.03505 32.5937 6.25174 30.8963 7.41553C27.9789 9.47862 25.0615 11.5946 22.1972 13.6577C21.8258 13.9222 21.5606 13.9751 21.2424 13.6048C20.2876 12.5997 19.2798 11.7004 18.325 10.6953C18.0598 10.4308 17.7945 10.3779 17.4232 10.5366C15.1424 11.7004 13.3389 13.3403 11.8537 15.4034C11.7476 15.5092 11.6415 15.6679 11.5354 15.8266C10.6867 14.7157 9.89108 13.7106 9.09542 12.6526C8.24673 11.5417 7.45108 10.4308 6.65543 9.37283C6.39021 9.00253 6.33716 8.73803 6.70847 8.36773C10.7928 3.87125 15.8319 1.22626 21.8789 0.591465C26.6528 0.0624676 31.2145 1.01466 35.458 3.28935C35.6171 3.39515 35.7763 3.44805 35.9354 3.55385C35.9354 3.71255 35.9354 3.76545 35.9884 3.81835ZM44.6345 35.5582C43.5206 34.1299 42.5128 32.8074 41.505 31.4849C39.1711 28.4167 36.8371 25.2957 34.4502 22.2275C34.1319 21.8043 34.1319 21.5398 34.5032 21.1695C35.5111 20.1644 36.4658 19.1593 37.4737 18.1542C37.7389 17.8897 37.845 17.6252 37.6328 17.2549C36.4658 15.0331 34.8745 13.1816 32.8058 11.7004C32.6467 11.5946 32.4876 11.4359 32.2754 11.3301C32.4345 11.1714 32.5937 11.0656 32.6998 10.9598C34.7154 9.42572 36.7311 7.94453 38.7467 6.41044C39.065 6.14594 39.3302 6.04014 39.7015 6.41044C44.7406 10.9598 47.4458 16.6201 47.711 23.4442C47.8171 27.4116 46.9154 31.1675 45.1119 34.7118C44.9528 34.9234 44.7937 35.1879 44.6345 35.5582Z" fill="white"/>
</svg>
